<svg width="512" height="512" viewBox="0 0 512 512" fill="none" xmlns="http://www.w3.org/2000/svg">
<g filter="url(#filter0_d_750_77)">
<g filter="url(#filter1_d_750_77)">
<rect x="51" y="50" width="411" height="411" rx="90" fill="white"/>
<path d="M357 167.651V216.083C357 247.79 331.083 273.736 299.406 273.736H251.027C219.35 273.736 193.433 247.79 193.433 216.083V167.651C193.433 135.942 219.35 110 251.027 110L299.406 110C331.083 110 357 135.942 357 167.651Z" fill="#FFB200"/>
<path d="M320.78 349.066L285.315 384.567C262.096 407.81 224.098 407.812 200.878 384.567L165.415 349.067C142.194 325.823 142.196 287.786 165.415 264.543L200.88 229.042C224.1 205.797 262.095 205.799 285.315 229.043L320.778 264.543C343.998 287.787 344 325.822 320.78 349.066Z" fill="#F5005A"/>
</g>
</g>
<defs>
<filter id="filter0_d_750_77" x="-4" y="0" width="520" height="520" filterUnits="userSpaceOnUse" color-interpolation-filters="sRGB">
<feFlood flood-opacity="0" result="BackgroundImageFix"/>
<feColorMatrix in="SourceAlpha" type="matrix" values="0 0 0 0 0 0 0 0 0 0 0 0 0 0 0 0 0 0 127 0" result="hardAlpha"/>
<feOffset dy="4"/>
<feGaussianBlur stdDeviation="2"/>
<feComposite in2="hardAlpha" operator="out"/>
<feColorMatrix type="matrix" values="0 0 0 0 0 0 0 0 0 0 0 0 0 0 0 0 0 0 0.25 0"/>
<feBlend mode="normal" in2="BackgroundImageFix" result="effect1_dropShadow_750_77"/>
<feBlend mode="normal" in="SourceGraphic" in2="effect1_dropShadow_750_77" result="shape"/>
</filter>
<filter id="filter1_d_750_77" x="47" y="50" width="419" height="419" filterUnits="userSpaceOnUse" color-interpolation-filters="sRGB">
<feFlood flood-opacity="0" result="BackgroundImageFix"/>
<feColorMatrix in="SourceAlpha" type="matrix" values="0 0 0 0 0 0 0 0 0 0 0 0 0 0 0 0 0 0 127 0" result="hardAlpha"/>
<feOffset dy="4"/>
<feGaussianBlur stdDeviation="2"/>
<feComposite in2="hardAlpha" operator="out"/>
<feColorMatrix type="matrix" values="0 0 0 0 0 0 0 0 0 0 0 0 0 0 0 0 0 0 0.25 0"/>
<feBlend mode="normal" in2="BackgroundImageFix" result="effect1_dropShadow_750_77"/>
<feBlend mode="normal" in="SourceGraphic" in2="effect1_dropShadow_750_77" result="shape"/>
</filter>
</defs>
</svg>
