<svg width="150" height="150" viewBox="0 0 59 59" fill="none" xmlns="http://www.w3.org/2000/svg">
    <rect width="59" height="59" rx="10" fill="#1E1E1E"/>
    <path
            d="M43 17.8975V24.5319C43 28.8754 39.4038 32.4296 35.0085 32.4296H28.2956C23.9003 32.4296 20.3041 28.8754 20.3041 24.5319V17.8975C20.3041 13.5537 23.9003 10 28.2956 10L35.0085 10C39.4038 10 43 13.5537 43 17.8975Z"
            fill="#FFB200"/>
    <path
            d="M37.9742 42.7487L33.0533 47.612C29.8315 50.7959 24.5591 50.7961 21.3371 47.612L16.4164 42.7489C13.1944 39.5648 13.1946 34.3542 16.4164 31.1703L21.3374 26.3071C24.5593 23.1229 29.8313 23.1231 33.0533 26.3073L37.974 31.1703C41.196 34.3544 41.1962 39.5646 37.9742 42.7487Z"
            fill="#F5005A"/>
</svg>